<svg width="42" height="48" viewBox="0 0 42 48" fill="none" xmlns="http://www.w3.org/2000/svg">
<path d="M18.6667 0.666672V12.3333H11.6667L21 21.6667L30.3333 12.3333H23.3333V0.666672H39.6667C40.2855 0.666672 40.879 0.912504 41.3166 1.35009C41.7542 1.78767 42 2.38117 42 3V45C42 45.6188 41.7542 46.2123 41.3166 46.6499C40.879 47.0875 40.2855 47.3333 39.6667 47.3333H2.33333C1.71449 47.3333 1.121 47.0875 0.683417 46.6499C0.245833 46.2123 0 45.6188 0 45V3C0 2.38117 0.245833 1.78767 0.683417 1.35009C1.121 0.912504 1.71449 0.666672 2.33333 0.666672H18.6667ZM37.3333 33.3333H4.66667V42.6667H37.3333V33.3333ZM32.6667 35.6667V40.3333H28V35.6667H32.6667Z" fill="#1073FC"/>
</svg>
